<svg height="512" viewBox="0 0 512 512" width="512" xmlns="http://www.w3.org/2000/svg"><g id="Solid"><path d="m336 488v-16h-19.056l8 16z"/><path d="m112 472v16h11.056l8-16z"/><path d="m232 176h-8v32h120v-184h-104a16.019 16.019 0 0 0 -16 16v24a8 8 0 0 1 7.972 7.335l8 96a8 8 0 0 1 -7.972 8.665z"/><circle cx="72" cy="352" r="8"/><path d="m224 368c42.123 0 74.085 5.7 96 11.665v-26.875c0-28.379 20.965-52.216 48-56.191v-56.599a16.019 16.019 0 0 0 -16-16h-256a16.019 16.019 0 0 0 -16 16v56.577a56 56 0 0 1 48 55.423v27.665c21.915-5.965 53.877-11.665 96-11.665zm72-72h16v16h-16zm-40-40h16v16h-16zm0 80h16v16h-16zm-40-40h16v16h-16zm-40-40h16v16h-16zm0 80h16v16h-16zm-40-40h16v16h-16z"/><path d="m80.694 160h142.612l-6.667-80h-129.278z"/><path d="m72 392a8 8 0 0 1 8 8v40a16.019 16.019 0 0 0 16 16h256a16.019 16.019 0 0 0 16-16v-40a8 8 0 0 1 8-8 40 40 0 1 0 -.687-79.994c-21.677.362-39.313 18.658-39.313 40.784v31.81c12.611 4.4 19.238 8.042 19.922 8.427l-7.844 13.946c-.396-.221-42.271-22.973-124.078-22.973s-123.682 22.752-124.095 22.982l-7.827-13.955c.684-.385 7.311-4.031 19.922-8.427v-32.6a40 40 0 0 0 -41.566-39.97 40.127 40.127 0 0 0 -38.4 38.4 40 40 0 0 0 39.966 41.57zm280-40a24 24 0 1 1 24 24 24.027 24.027 0 0 1 -24-24zm-280-24a24 24 0 1 1 -24 24 24.027 24.027 0 0 1 24-24z"/><path d="m448 472h-19.056l8 16h11.056z"/><path d="m360 24v185.013a32.056 32.056 0 0 1 24 30.987v56.575a56 56 0 0 1 0 110.855v32.57a31.793 31.793 0 0 1 -4.305 16h84.305a16.019 16.019 0 0 0 16-16v-400a16.019 16.019 0 0 0 -16-16z"/><circle cx="376" cy="352" r="8"/><path d="m144 48h16v16h-16z"/><path d="m144 176h16v32h-16z"/></g></svg>