<svg id="Capa_1" enable-background="new 0 0 512 512" height="512" viewBox="0 0 512 512" width="512" xmlns="http://www.w3.org/2000/svg"><g><path d="m256.022 482.894c-62.908 0-125.722-8.698-187.348-24.683-3.506 10.765-6.257 22.916-7.214 38.238-.53 8.457 6.553 15.551 15.029 15.551l359.008-.002c8.476 0 15.558-7.092 15.029-15.549-.941-15.057-3.629-27.028-7.037-37.676-61.593 15.989-124.512 24.121-187.467 24.121z"/><path d="m82.235 430.632c114.457 28.621 233.172 28.555 347.485-.035-19.252-25.175-47.325-30.859-76.924-40.023-3.256 1.597-6.555 3.184-9.761 4.781-27.482 13.71-53.439 26.645-87.042 26.645s-59.561-12.935-87.041-26.646c-3.208-1.599-6.559-3.157-9.809-4.752-29.764 9.191-57.666 14.838-76.908 40.03z"/><path d="m255.993 362c-14.756 0-28.737-3.038-41.805-7.932-5.204 8.815-11.913 15.333-19.369 20.535 20.229 9.765 39.126 17.397 61.174 17.397 22.134 0 41.094-7.692 61.41-17.512-7.322-5.204-13.951-11.726-19.166-20.557-13.189 4.996-27.327 8.069-42.244 8.069z"/><g><path d="m496.993 302c-11.001 0-21.768-2.432-31.582-6.987 15.718-6.05 30.117-15.337 42.188-27.407 4.292-4.292 5.581-10.737 3.252-16.348-2.314-5.61-7.793-9.258-13.857-9.258-41.353 0-76-35.647-76-77 0-90.981-74.019-165-165-165s-165 74.019-165 165c0 .018.011.035.011.053-.022 41.336-34.657 76.962-75.996 76.962-6.064 0-11.543 3.647-13.857 9.258-2.329 5.61-1.04 12.056 3.252 16.348 12.07 12.07 26.484 21.357 42.188 27.407-9.8 4.541-20.581 6.987-31.582 6.987-6.064 0-11.543 3.647-13.857 9.258-2.329 5.61-1.04 12.056 3.252 16.348 20.449 20.449 43.979 28.169 66.859 28.169 33.138 0 66.978-16.218 96.205-33.475-19.352-21.315-31.474-49.325-31.474-80.314v-128.212c0-6.064 3.647-11.543 9.258-13.857 5.625-2.329 12.056-1.025 16.348 3.252l34.395 34.395 19.395-19.395c5.859-5.859 15.352-5.859 21.211 0l19.395 19.395 19.395-19.395c5.859-5.859 15.352-5.859 21.211 0l19.395 19.395 34.395-34.395c4.292-4.307 10.737-5.596 16.348-3.252 5.61 2.314 9.261 7.793 9.261 13.857v128.211c0 30.983-12.121 58.989-31.468 80.303 29.227 17.263 63.06 33.486 96.196 33.486 22.881 0 46.425-7.734 66.874-28.184 4.292-4.292 5.581-10.737 3.252-16.348-2.32-5.61-7.799-9.257-13.863-9.257z"/></g><g><path d="m165.996 150v92c0 49.629 40.368 90 89.997 90s90-40.371 90-90v-92l-19.395 19.395c-5.859 5.859-15.352 5.859-21.211 0l-19.394-19.395-19.395 19.395c-5.859 5.859-15.352 5.859-21.211 0l-19.394-19.395-19.395 19.395c-5.859 5.859-15.352 5.859-21.211 0z"/></g></g></svg>