<svg id="Capa_1" enable-background="new 0 0 512.5 512.5" height="512" viewBox="0 0 512.5 512.5" width="512" xmlns="http://www.w3.org/2000/svg"><g><path d="m218.545 293.817 47.676-46.224c4.49-4.379 6.98-10.277 6.98-16.578 0-12.794-10.409-23.203-23.203-23.203-7.484 0-14.554 3.654-18.913 9.775l-4.486 6.298h-16.108l-4.486-6.298c-4.359-6.121-11.429-9.775-18.913-9.775-12.794 0-23.203 10.409-23.203 23.203 0 6.301 2.49 12.199 7.011 16.608z"/><path d="m482.486 440.564v-440.564h-377.063v41.936h331.654v398.628z"/><path d="m99.77 365.59h237.551v-223.658h-237.551zm87.322-187.778c11.429 0 22.431 3.707 31.453 10.317 9.022-6.611 20.024-10.317 31.453-10.317 29.336 0 53.203 23.867 53.203 53.203 0 14.457-5.706 27.983-16.067 38.087l-68.589 66.5-68.558-66.471c-10.392-10.133-16.098-23.66-16.098-38.117 0-29.335 23.867-53.202 53.203-53.202z"/><path d="m30.014 512.5h377.063v-440.564h-377.063zm277.941-39.08h-30v-30.083h30zm58.366 0h-30v-30.083h30zm-296.551-361.488h297.551v283.658h-297.551z"/></g></svg>