<svg id="Layer_1" enable-background="new 0 0 510 510" height="512" viewBox="0 0 510 510" width="512" xmlns="http://www.w3.org/2000/svg"><g><path d="m240 9.766h30v61.666h-30z"/><path d="m302.457 45.599h61.667v30h-61.667z" transform="matrix(.707 -.707 .707 .707 54.769 253.421)"/><path d="m161.709 29.765h30v61.667h-30z" transform="matrix(.707 -.707 .707 .707 8.907 142.701)"/><path d="m229.912 188.354c-31.73 7.626-57.863 30.025-70.875 59.598h33.874c13.385-19.584 35.718-32.448 60.981-32.448 4.336 0 8.613.32 12.799.928 20.657 3.269 38.527 15.001 49.952 31.52h34.267c-13.065-29.352-39.207-51.641-70.985-59.43l34.451-35.641-29.825-48.473h-59.111l-29.814 48.475z"/><path d="m462.5 330.503v-52.552c-11.697 0-403.303 0-415 0v52.552z"/><path d="m0 360.503v95c0 24.704 20.278 44.73 45.292 44.73h419.415c25.015 0 45.293-20.026 45.293-44.73v-95c-14.385 0-495.615 0-510 0z"/></g></svg>